<svg width="67" height="67" viewBox="0 0 67 67" fill="none" xmlns="http://www.w3.org/2000/svg">
<g clip-path="url(#clip0_1644_12086)">
<mask id="mask0_1644_12086" style="mask-type:luminance" maskUnits="userSpaceOnUse" x="0" y="0" width="67" height="67">
<path d="M67 0H0V67H67V0Z" fill="white"/>
</mask>
<g mask="url(#mask0_1644_12086)">
<g filter="url(#filter0_ii_1644_12086)">
<path d="M49.241 0H17.759C7.95099 0 0 7.95099 0 17.759V49.241C0 59.049 7.95099 67 17.759 67H49.241C59.049 67 67 59.049 67 49.241V17.759C67 7.95099 59.049 0 49.241 0Z" fill="#F1F1F1"/>
</g>
<g style="mix-blend-mode:lighten">
<path d="M49.241 0H17.759C7.95099 0 0 7.95099 0 17.759V49.241C0 59.049 7.95099 67 17.759 67H49.241C59.049 67 67 59.049 67 49.241V17.759C67 7.95099 59.049 0 49.241 0Z" fill="url(#paint0_linear_1644_12086)" fill-opacity="0.2"/>
<path d="M49.241 0.050293H17.7591C7.9789 0.050293 0.050499 7.9787 0.050499 17.7589V49.2408C0.050499 59.021 7.9789 66.9494 17.7591 66.9494H49.241C59.0212 66.9494 66.9496 59.021 66.9496 49.2408V17.7589C66.9496 7.9787 59.0212 0.050293 49.241 0.050293Z" stroke="white" stroke-opacity="0.1" stroke-width="0.265873"/>
</g>
<g filter="url(#filter1_f_1644_12086)">
<path d="M66.4955 49.5437L33.9036 52.6717L40.3614 47.9292L48.4337 38.6461L50.0482 26.8404L41.9759 16.75L66.4955 30.0693V49.5437Z" fill="url(#paint1_linear_1644_12086)" fill-opacity="0.1"/>
</g>
</g>
<g filter="url(#filter2_dif_1644_12086)">
<path fill-rule="evenodd" clip-rule="evenodd" d="M24.6204 19.7769H34.7828L34.871 19.9787H34.9126L34.8914 20.0252L42.1968 36.7355L49.873 19.9787L54.8915 30.4085L47.1647 48.0987L47.2229 48.2317H47.1066H37.0604H36.9307L36.9971 48.0866L29.6915 31.3761L21.9703 48.2317L16.9518 37.8019L24.7228 20.0107L24.6204 19.7769Z" fill="black" fill-opacity="0.5"/>
<path d="M34.7829 19.7769L34.9678 19.696L34.9149 19.5751H34.7829V19.7769ZM24.6205 19.7769V19.5751H24.312L24.4357 19.8577L24.6205 19.7769ZM34.8711 19.9787L34.6863 20.0595L34.7391 20.1805H34.8711V19.9787ZM34.9127 19.9787L35.0961 20.0627L35.2271 19.7769H34.9127V19.9787ZM34.8915 20.0252L34.7079 19.9411L34.6703 20.0232L34.7065 20.106L34.8915 20.0252ZM42.1969 36.7355L42.0121 36.8165L42.1927 37.2296L42.3804 36.8197L42.1969 36.7355ZM49.8731 19.9787L50.0549 19.8912L49.8686 19.5039L49.6896 19.8946L49.8731 19.9787ZM54.8916 30.4085L55.0765 30.4894L55.1136 30.4044L55.0734 30.3211L54.8916 30.4085ZM47.1648 48.0987L46.9798 48.018L46.9447 48.0987L46.98 48.1794L47.1648 48.0987ZM47.2229 48.2317V48.4335H47.5315L47.4078 48.1508L47.2229 48.2317ZM36.9308 48.2317L36.7473 48.1477L36.6164 48.4335H36.9308V48.2317ZM36.9972 48.0866L37.1806 48.1707L37.2184 48.0886L37.182 48.0059L36.9972 48.0866ZM29.6915 31.3761L29.8766 31.2954L29.696 30.8823L29.5081 31.2922L29.6915 31.3761ZM21.9704 48.2317L21.7886 48.3193L21.9748 48.7065L22.1538 48.3156L21.9704 48.2317ZM16.9519 37.8019L16.7669 37.721L16.7299 37.8059L16.77 37.8893L16.9519 37.8019ZM24.7229 20.0107L24.9077 20.0915L24.943 20.0107L24.9077 19.9299L24.7229 20.0107ZM34.7829 19.5751H24.6205V19.9787H34.7829V19.5751ZM35.056 19.8978L34.9678 19.696L34.5979 19.8577L34.6863 20.0595L35.056 19.8978ZM34.8711 20.1805H34.9127V19.7769H34.8711V20.1805ZM34.7293 19.8946L34.7079 19.9411L35.075 20.1092L35.0961 20.0627L34.7293 19.8946ZM42.382 36.6548L35.0764 19.9443L34.7065 20.106L42.0121 36.8165L42.382 36.6548ZM49.6896 19.8946L42.0135 36.6516L42.3804 36.8197L50.0567 20.0627L49.6896 19.8946ZM55.0734 30.3211L50.0549 19.8912L49.6912 20.0662L54.7098 30.4961L55.0734 30.3211ZM47.3497 48.1794L55.0765 30.4894L54.7068 30.3278L46.9798 48.018L47.3497 48.1794ZM47.4078 48.1508L47.3497 48.0178L46.98 48.1794L47.0381 48.3126L47.4078 48.1508ZM47.1067 48.4335H47.2229V48.0299H47.1067V48.4335ZM37.0605 48.4335H47.1067V48.0299H37.0605V48.4335ZM36.9308 48.4335H37.0605V48.0299H36.9308V48.4335ZM36.8137 48.0026L36.7473 48.1477L37.1142 48.3156L37.1806 48.1707L36.8137 48.0026ZM29.5067 31.4571L36.8123 48.1675L37.182 48.0059L29.8766 31.2954L29.5067 31.4571ZM29.5081 31.2922L21.7868 48.1477L22.1538 48.3156L29.8752 31.4603L29.5081 31.2922ZM22.1522 48.1441L17.1337 37.7143L16.77 37.8893L21.7886 48.3193L22.1522 48.1441ZM17.1368 37.8826L24.9077 20.0915L24.5378 19.93L16.7669 37.721L17.1368 37.8826ZM24.4357 19.8577L24.5378 20.0916L24.9077 19.9299L24.8054 19.696L24.4357 19.8577Z" fill="white" fill-opacity="0.1"/>
</g>
<g filter="url(#filter3_di_1644_12086)">
<path fill-rule="evenodd" clip-rule="evenodd" d="M23.6234 18.0791H33.802L33.8904 18.2779H33.9321L33.9108 18.3237L41.2279 34.7668L48.9161 18.2779L53.9426 28.5409L46.2036 45.9482L46.2617 46.0789H46.1455L46.1454 46.0791H35.9533L36.0198 45.9365L28.7027 29.4934L20.9693 46.0791L15.9428 35.8161L23.726 18.3096L23.6234 18.0791Z" fill="url(#paint2_linear_1644_12086)"/>
</g>
</g>
<defs>
<filter id="filter0_ii_1644_12086" x="0" y="0" width="67" height="67" filterUnits="userSpaceOnUse" color-interpolation-filters="sRGB">
<feFlood flood-opacity="0" result="BackgroundImageFix"/>
<feBlend mode="normal" in="SourceGraphic" in2="BackgroundImageFix" result="shape"/>
<feColorMatrix in="SourceAlpha" type="matrix" values="0 0 0 0 0 0 0 0 0 0 0 0 0 0 0 0 0 0 127 0" result="hardAlpha"/>
<feOffset/>
<feGaussianBlur stdDeviation="1.06349"/>
<feComposite in2="hardAlpha" operator="arithmetic" k2="-1" k3="1"/>
<feColorMatrix type="matrix" values="0 0 0 0 1 0 0 0 0 1 0 0 0 0 1 0 0 0 0.1 0"/>
<feBlend mode="normal" in2="shape" result="effect1_innerShadow_1644_12086"/>
<feColorMatrix in="SourceAlpha" type="matrix" values="0 0 0 0 0 0 0 0 0 0 0 0 0 0 0 0 0 0 127 0" result="hardAlpha"/>
<feOffset/>
<feGaussianBlur stdDeviation="1.06349"/>
<feComposite in2="hardAlpha" operator="arithmetic" k2="-1" k3="1"/>
<feColorMatrix type="matrix" values="0 0 0 0 1 0 0 0 0 1 0 0 0 0 1 0 0 0 0.1 0"/>
<feBlend mode="normal" in2="effect1_innerShadow_1644_12086" result="effect2_innerShadow_1644_12086"/>
</filter>
<filter id="filter1_f_1644_12086" x="28.5862" y="11.4325" width="43.2268" height="46.5568" filterUnits="userSpaceOnUse" color-interpolation-filters="sRGB">
<feFlood flood-opacity="0" result="BackgroundImageFix"/>
<feBlend mode="normal" in="SourceGraphic" in2="BackgroundImageFix" result="shape"/>
<feGaussianBlur stdDeviation="2.65873" result="effect1_foregroundBlur_1644_12086"/>
</filter>
<filter id="filter2_dif_1644_12086" x="6.09495" y="8.86899" width="59.6536" height="50.4725" filterUnits="userSpaceOnUse" color-interpolation-filters="sRGB">
<feFlood flood-opacity="0" result="BackgroundImageFix"/>
<feColorMatrix in="SourceAlpha" type="matrix" values="0 0 0 0 0 0 0 0 0 0 0 0 0 0 0 0 0 0 127 0" result="hardAlpha"/>
<feOffset dy="1.06349"/>
<feGaussianBlur stdDeviation="0.797619"/>
<feColorMatrix type="matrix" values="0 0 0 0 0 0 0 0 0 0 0 0 0 0 0 0 0 0 0.25 0"/>
<feBlend mode="normal" in2="BackgroundImageFix" result="effect1_dropShadow_1644_12086"/>
<feBlend mode="normal" in="SourceGraphic" in2="effect1_dropShadow_1644_12086" result="shape"/>
<feColorMatrix in="SourceAlpha" type="matrix" values="0 0 0 0 0 0 0 0 0 0 0 0 0 0 0 0 0 0 127 0" result="hardAlpha"/>
<feOffset/>
<feGaussianBlur stdDeviation="2.12698"/>
<feComposite in2="hardAlpha" operator="arithmetic" k2="-1" k3="1"/>
<feColorMatrix type="matrix" values="0 0 0 0 1 0 0 0 0 1 0 0 0 0 1 0 0 0 0.2 0"/>
<feBlend mode="normal" in2="shape" result="effect2_innerShadow_1644_12086"/>
<feGaussianBlur stdDeviation="5.31746" result="effect3_foregroundBlur_1644_12086"/>
</filter>
<filter id="filter3_di_1644_12086" x="14.3475" y="17.5474" width="41.1903" height="31.1905" filterUnits="userSpaceOnUse" color-interpolation-filters="sRGB">
<feFlood flood-opacity="0" result="BackgroundImageFix"/>
<feColorMatrix in="SourceAlpha" type="matrix" values="0 0 0 0 0 0 0 0 0 0 0 0 0 0 0 0 0 0 127 0" result="hardAlpha"/>
<feOffset dy="1.06349"/>
<feGaussianBlur stdDeviation="0.797619"/>
<feColorMatrix type="matrix" values="0 0 0 0 0 0 0 0 0 0 0 0 0 0 0 0 0 0 0.25 0"/>
<feBlend mode="normal" in2="BackgroundImageFix" result="effect1_dropShadow_1644_12086"/>
<feBlend mode="normal" in="SourceGraphic" in2="effect1_dropShadow_1644_12086" result="shape"/>
<feColorMatrix in="SourceAlpha" type="matrix" values="0 0 0 0 0 0 0 0 0 0 0 0 0 0 0 0 0 0 127 0" result="hardAlpha"/>
<feOffset/>
<feGaussianBlur stdDeviation="2.12698"/>
<feComposite in2="hardAlpha" operator="arithmetic" k2="-1" k3="1"/>
<feColorMatrix type="matrix" values="0 0 0 0 1 0 0 0 0 1 0 0 0 0 1 0 0 0 0.2 0"/>
<feBlend mode="normal" in2="shape" result="effect2_innerShadow_1644_12086"/>
</filter>
<linearGradient id="paint0_linear_1644_12086" x1="10.9985" y1="56.0015" x2="71.8799" y2="43.2788" gradientUnits="userSpaceOnUse">
<stop stop-color="#316FD2"/>
<stop offset="0.552083" stop-color="#426BC2"/>
<stop offset="1" stop-color="#4839B5"/>
</linearGradient>
<linearGradient id="paint1_linear_1644_12086" x1="53.2771" y1="33.2982" x2="67" y2="39.0497" gradientUnits="userSpaceOnUse">
<stop/>
<stop offset="0.911758" stop-opacity="0"/>
</linearGradient>
<linearGradient id="paint2_linear_1644_12086" x1="33.9354" y1="18.3464" x2="13.7869" y2="21.9546" gradientUnits="userSpaceOnUse">
<stop stop-color="#307CF4"/>
<stop offset="0.302083" stop-color="#863AF7"/>
<stop offset="0.640221" stop-color="#BC37E2"/>
<stop offset="1" stop-color="#EF615C"/>
</linearGradient>
<clipPath id="clip0_1644_12086">
<rect width="67" height="67" fill="white"/>
</clipPath>
</defs>
</svg>
