<svg width="637" height="644" viewBox="0 0 637 644" fill="none" xmlns="http://www.w3.org/2000/svg">
<circle cx="337" cy="328" r="299.75" stroke="black" stroke-width="0.5"/>
<circle cx="337" cy="328" r="199.5" stroke="black"/>
<circle cx="337" cy="323" r="99" stroke="black" stroke-width="2"/>
<circle cx="48" cy="263" r="48" fill="black"/>
<path d="M25.632 269.16C24.9493 269.16 24.3413 268.989 23.808 268.648C23.2747 268.307 22.8533 267.875 22.544 267.352V272.408H21.136V260.648H22.384V262.216C22.7147 261.704 23.1467 261.293 23.68 260.984C24.2133 260.664 24.7947 260.504 25.424 260.504C26 260.504 26.528 260.621 27.008 260.856C27.488 261.091 27.904 261.411 28.256 261.816C28.608 262.221 28.88 262.685 29.072 263.208C29.2747 263.72 29.376 264.259 29.376 264.824C29.376 265.613 29.216 266.339 28.896 267C28.5867 267.661 28.1493 268.189 27.584 268.584C27.0187 268.968 26.368 269.16 25.632 269.16ZM25.2 267.944C25.616 267.944 25.9893 267.859 26.32 267.688C26.6613 267.507 26.9493 267.272 27.184 266.984C27.4293 266.685 27.616 266.349 27.744 265.976C27.872 265.603 27.936 265.219 27.936 264.824C27.936 264.408 27.8613 264.013 27.712 263.64C27.5733 263.267 27.3707 262.936 27.104 262.648C26.848 262.36 26.544 262.136 26.192 261.976C25.8507 261.805 25.4773 261.72 25.072 261.72C24.816 261.72 24.5493 261.768 24.272 261.864C24.0053 261.96 23.7493 262.099 23.504 262.28C23.2587 262.451 23.0507 262.648 22.88 262.872C22.7093 263.096 22.5973 263.336 22.544 263.592V265.976C22.704 266.339 22.9173 266.669 23.184 266.968C23.4507 267.267 23.76 267.507 24.112 267.688C24.464 267.859 24.8267 267.944 25.2 267.944ZM35.5208 261.88C34.8168 261.891 34.1928 262.072 33.6488 262.424C33.1154 262.765 32.7368 263.24 32.5128 263.848V269H31.1048V260.648H32.4168V262.584C32.7048 262.008 33.0834 261.544 33.5528 261.192C34.0328 260.829 34.5341 260.627 35.0568 260.584C35.1634 260.584 35.2541 260.584 35.3288 260.584C35.4034 260.584 35.4674 260.589 35.5208 260.6V261.88ZM36.9173 269V260.648H38.3253V269H36.9173ZM36.9173 259.08V257.32H38.3253V259.08H36.9173ZM43.0048 269L39.7248 260.648H41.1968L43.8208 267.656L46.4448 260.648H47.8208L44.5408 269H43.0048ZM48.3706 266.584C48.3706 266.051 48.52 265.592 48.8186 265.208C49.128 264.813 49.5493 264.509 50.0826 264.296C50.616 264.083 51.2346 263.976 51.9386 263.976C52.312 263.976 52.7066 264.008 53.1226 264.072C53.5386 264.125 53.9066 264.211 54.2266 264.328V263.72C54.2266 263.08 54.0346 262.579 53.6506 262.216C53.2666 261.843 52.7226 261.656 52.0186 261.656C51.56 261.656 51.1173 261.741 50.6906 261.912C50.2746 262.072 49.832 262.307 49.3626 262.616L48.8506 261.624C49.3946 261.251 49.9386 260.973 50.4826 260.792C51.0266 260.6 51.592 260.504 52.1786 260.504C53.2453 260.504 54.088 260.803 54.7066 261.4C55.3253 261.987 55.6346 262.808 55.6346 263.864V267.4C55.6346 267.571 55.6666 267.699 55.7306 267.784C55.8053 267.859 55.9226 267.901 56.0826 267.912V269C55.944 269.021 55.8213 269.037 55.7146 269.048C55.6186 269.059 55.5386 269.064 55.4746 269.064C55.144 269.064 54.8933 268.973 54.7226 268.792C54.5626 268.611 54.472 268.419 54.4506 268.216L54.4186 267.688C54.056 268.157 53.5813 268.52 52.9946 268.776C52.408 269.032 51.8266 269.16 51.2506 269.16C50.696 269.16 50.2 269.048 49.7626 268.824C49.3253 268.589 48.984 268.28 48.7386 267.896C48.4933 267.501 48.3706 267.064 48.3706 266.584ZM53.8106 267.176C53.9386 267.027 54.04 266.877 54.1146 266.728C54.1893 266.568 54.2266 266.435 54.2266 266.328V265.288C53.896 265.16 53.5493 265.064 53.1866 265C52.824 264.925 52.4666 264.888 52.1146 264.888C51.4 264.888 50.8186 265.032 50.3706 265.32C49.9333 265.597 49.7146 265.981 49.7146 266.472C49.7146 266.739 49.784 267 49.9226 267.256C50.072 267.501 50.2853 267.704 50.5626 267.864C50.8506 268.024 51.2026 268.104 51.6186 268.104C52.056 268.104 52.472 268.019 52.8666 267.848C53.2613 267.667 53.576 267.443 53.8106 267.176ZM61.582 269.16C60.9527 269.16 60.3767 269.048 59.854 268.824C59.342 268.589 58.894 268.269 58.51 267.864C58.1367 267.459 57.8433 266.995 57.63 266.472C57.4273 265.949 57.326 265.395 57.326 264.808C57.326 264.019 57.502 263.299 57.854 262.648C58.206 261.997 58.702 261.48 59.342 261.096C59.982 260.701 60.7233 260.504 61.566 260.504C62.3873 260.504 63.102 260.691 63.71 261.064C64.3287 261.427 64.7873 261.917 65.086 262.536L63.71 262.968C63.4967 262.573 63.198 262.269 62.814 262.056C62.43 261.832 62.0033 261.72 61.534 261.72C61.022 261.72 60.5527 261.853 60.126 262.12C59.71 262.387 59.3793 262.755 59.134 263.224C58.8887 263.683 58.766 264.211 58.766 264.808C58.766 265.395 58.8887 265.928 59.134 266.408C59.39 266.877 59.726 267.251 60.142 267.528C60.5687 267.805 61.038 267.944 61.55 267.944C61.8807 267.944 62.1953 267.885 62.494 267.768C62.8033 267.651 63.07 267.496 63.294 267.304C63.5287 267.101 63.6887 266.883 63.774 266.648L65.15 267.064C64.9793 267.469 64.718 267.832 64.366 268.152C64.0247 268.461 63.614 268.707 63.134 268.888C62.6647 269.069 62.1473 269.16 61.582 269.16ZM66.9888 271.272C67.1274 271.283 67.2661 271.293 67.4048 271.304C67.5434 271.325 67.6501 271.336 67.7248 271.336C67.8954 271.336 68.0448 271.277 68.1728 271.16C68.3008 271.043 68.4394 270.813 68.5888 270.472C68.7488 270.141 68.9514 269.651 69.1968 269L65.6608 260.648H67.1488L69.9648 267.576L72.5088 260.648H73.9008L69.8368 271.192C69.7407 271.437 69.5968 271.667 69.4048 271.88C69.2234 272.104 68.9888 272.28 68.7008 272.408C68.4128 272.536 68.0661 272.6 67.6608 272.6C67.5648 272.6 67.4634 272.595 67.3568 272.584C67.2608 272.573 67.1381 272.552 66.9888 272.52V271.272Z" fill="white"/>
<circle cx="495" cy="436" r="52" fill="black"/>
<path d="M457.168 430.32H458.576V439.84C458.576 440.299 458.64 440.581 458.768 440.688C458.896 440.795 459.051 440.848 459.232 440.848C459.456 440.848 459.669 440.827 459.872 440.784C460.075 440.731 460.245 440.677 460.384 440.624L460.608 441.776C460.373 441.872 460.096 441.952 459.776 442.016C459.456 442.08 459.173 442.112 458.928 442.112C458.384 442.112 457.952 441.957 457.632 441.648C457.323 441.339 457.168 440.907 457.168 440.352V430.32ZM465.362 442.16C464.733 442.16 464.162 442.048 463.65 441.824C463.138 441.589 462.695 441.275 462.322 440.88C461.949 440.475 461.661 440.011 461.458 439.488C461.255 438.965 461.154 438.416 461.154 437.84C461.154 437.253 461.255 436.699 461.458 436.176C461.661 435.653 461.949 435.195 462.322 434.8C462.695 434.395 463.138 434.08 463.65 433.856C464.173 433.621 464.743 433.504 465.362 433.504C465.991 433.504 466.562 433.621 467.074 433.856C467.586 434.08 468.029 434.395 468.402 434.8C468.786 435.195 469.079 435.653 469.282 436.176C469.485 436.699 469.586 437.253 469.586 437.84C469.586 438.416 469.485 438.965 469.282 439.488C469.079 440.011 468.791 440.475 468.418 440.88C468.045 441.275 467.597 441.589 467.074 441.824C466.562 442.048 465.991 442.16 465.362 442.16ZM462.594 437.856C462.594 438.432 462.717 438.955 462.962 439.424C463.218 439.893 463.554 440.267 463.97 440.544C464.386 440.811 464.85 440.944 465.362 440.944C465.874 440.944 466.338 440.805 466.754 440.528C467.181 440.251 467.517 439.877 467.762 439.408C468.018 438.928 468.146 438.4 468.146 437.824C468.146 437.248 468.018 436.725 467.762 436.256C467.517 435.787 467.181 435.413 466.754 435.136C466.338 434.859 465.874 434.72 465.362 434.72C464.85 434.72 464.386 434.864 463.97 435.152C463.554 435.429 463.218 435.803 462.962 436.272C462.717 436.741 462.594 437.269 462.594 437.856ZM481.475 433.648H482.835L479.283 442H478.051L476.435 438.064L474.835 442H473.603L470.051 433.648H471.395L474.275 440.608L475.619 437.184L474.211 433.664H475.443L476.435 436.32L477.427 433.664H478.659L477.267 437.184L478.611 440.608L481.475 433.648ZM487.566 442.16C486.937 442.16 486.361 442.048 485.838 441.824C485.326 441.589 484.878 441.275 484.494 440.88C484.121 440.475 483.828 440.011 483.614 439.488C483.412 438.965 483.31 438.411 483.31 437.824C483.31 437.035 483.492 436.315 483.854 435.664C484.217 435.013 484.718 434.491 485.358 434.096C486.009 433.701 486.75 433.504 487.582 433.504C488.425 433.504 489.156 433.707 489.774 434.112C490.404 434.507 490.889 435.029 491.23 435.68C491.582 436.32 491.758 437.013 491.758 437.76C491.758 437.867 491.753 437.973 491.742 438.08C491.742 438.176 491.737 438.251 491.726 438.304H484.798C484.841 438.848 484.99 439.333 485.246 439.76C485.513 440.176 485.854 440.507 486.27 440.752C486.686 440.987 487.134 441.104 487.614 441.104C488.126 441.104 488.606 440.976 489.054 440.72C489.513 440.464 489.828 440.128 489.998 439.712L491.214 440.048C491.033 440.453 490.761 440.816 490.398 441.136C490.046 441.456 489.625 441.707 489.134 441.888C488.654 442.069 488.132 442.16 487.566 442.16ZM484.75 437.328H490.446C490.404 436.784 490.249 436.304 489.982 435.888C489.716 435.472 489.374 435.147 488.958 434.912C488.542 434.677 488.084 434.56 487.582 434.56C487.092 434.56 486.638 434.677 486.222 434.912C485.806 435.147 485.465 435.472 485.198 435.888C484.942 436.304 484.793 436.784 484.75 437.328ZM497.74 434.88C497.036 434.891 496.412 435.072 495.868 435.424C495.334 435.765 494.956 436.24 494.732 436.848V442H493.324V433.648H494.636V435.584C494.924 435.008 495.302 434.544 495.772 434.192C496.252 433.829 496.753 433.627 497.276 433.584C497.382 433.584 497.473 433.584 497.548 433.584C497.622 433.584 497.686 433.589 497.74 433.6V434.88ZM503.256 442V434.752H502.12V433.648H503.256V433.472C503.256 432.789 503.357 432.203 503.56 431.712C503.773 431.211 504.072 430.827 504.456 430.56C504.84 430.293 505.293 430.16 505.816 430.16C506.147 430.16 506.472 430.208 506.792 430.304C507.112 430.389 507.4 430.512 507.656 430.672L507.304 431.712C507.155 431.605 506.968 431.52 506.744 431.456C506.531 431.392 506.317 431.36 506.104 431.36C505.645 431.36 505.288 431.541 505.032 431.904C504.787 432.256 504.664 432.763 504.664 433.424V433.648H506.888V434.752H504.664V442H503.256ZM511.785 442.16C511.156 442.16 510.58 442.048 510.057 441.824C509.545 441.589 509.097 441.275 508.713 440.88C508.34 440.475 508.046 440.011 507.833 439.488C507.63 438.965 507.529 438.411 507.529 437.824C507.529 437.035 507.71 436.315 508.073 435.664C508.436 435.013 508.937 434.491 509.577 434.096C510.228 433.701 510.969 433.504 511.801 433.504C512.644 433.504 513.374 433.707 513.993 434.112C514.622 434.507 515.108 435.029 515.449 435.68C515.801 436.32 515.977 437.013 515.977 437.76C515.977 437.867 515.972 437.973 515.961 438.08C515.961 438.176 515.956 438.251 515.945 438.304H509.017C509.06 438.848 509.209 439.333 509.465 439.76C509.732 440.176 510.073 440.507 510.489 440.752C510.905 440.987 511.353 441.104 511.833 441.104C512.345 441.104 512.825 440.976 513.273 440.72C513.732 440.464 514.046 440.128 514.217 439.712L515.433 440.048C515.252 440.453 514.98 440.816 514.617 441.136C514.265 441.456 513.844 441.707 513.353 441.888C512.873 442.069 512.35 442.16 511.785 442.16ZM508.969 437.328H514.665C514.622 436.784 514.468 436.304 514.201 435.888C513.934 435.472 513.593 435.147 513.177 434.912C512.761 434.677 512.302 434.56 511.801 434.56C511.31 434.56 510.857 434.677 510.441 434.912C510.025 435.147 509.684 435.472 509.417 435.888C509.161 436.304 509.012 436.784 508.969 437.328ZM521.238 442.16C520.609 442.16 520.033 442.048 519.51 441.824C518.998 441.589 518.55 441.275 518.166 440.88C517.793 440.475 517.5 440.011 517.286 439.488C517.084 438.965 516.982 438.411 516.982 437.824C516.982 437.035 517.164 436.315 517.526 435.664C517.889 435.013 518.39 434.491 519.03 434.096C519.681 433.701 520.422 433.504 521.254 433.504C522.097 433.504 522.828 433.707 523.446 434.112C524.076 434.507 524.561 435.029 524.902 435.68C525.254 436.32 525.43 437.013 525.43 437.76C525.43 437.867 525.425 437.973 525.414 438.08C525.414 438.176 525.409 438.251 525.398 438.304H518.47C518.513 438.848 518.662 439.333 518.918 439.76C519.185 440.176 519.526 440.507 519.942 440.752C520.358 440.987 520.806 441.104 521.286 441.104C521.798 441.104 522.278 440.976 522.726 440.72C523.185 440.464 523.5 440.128 523.67 439.712L524.886 440.048C524.705 440.453 524.433 440.816 524.07 441.136C523.718 441.456 523.297 441.707 522.806 441.888C522.326 442.069 521.804 442.16 521.238 442.16ZM518.422 437.328H524.118C524.076 436.784 523.921 436.304 523.654 435.888C523.388 435.472 523.046 435.147 522.63 434.912C522.214 434.677 521.756 434.56 521.254 434.56C520.764 434.56 520.31 434.677 519.894 434.912C519.478 435.147 519.137 435.472 518.87 435.888C518.614 436.304 518.465 436.784 518.422 437.328ZM529.859 442.16C529.166 442.16 528.515 442.048 527.907 441.824C527.299 441.589 526.777 441.243 526.339 440.784L526.883 439.792C527.363 440.24 527.843 440.56 528.323 440.752C528.803 440.944 529.294 441.04 529.795 441.04C530.371 441.04 530.841 440.933 531.203 440.72C531.566 440.496 531.747 440.171 531.747 439.744C531.747 439.435 531.651 439.205 531.459 439.056C531.278 438.907 531.017 438.784 530.675 438.688C530.334 438.581 529.929 438.464 529.459 438.336C528.883 438.165 528.398 437.984 528.003 437.792C527.609 437.6 527.31 437.36 527.107 437.072C526.905 436.784 526.803 436.421 526.803 435.984C526.803 435.451 526.942 435.003 527.219 434.64C527.497 434.267 527.875 433.984 528.355 433.792C528.846 433.6 529.401 433.504 530.019 433.504C530.638 433.504 531.198 433.6 531.699 433.792C532.201 433.984 532.633 434.267 532.995 434.64L532.355 435.616C532.025 435.275 531.662 435.024 531.267 434.864C530.873 434.693 530.43 434.608 529.939 434.608C529.651 434.608 529.369 434.645 529.091 434.72C528.814 434.784 528.585 434.907 528.403 435.088C528.222 435.259 528.131 435.504 528.131 435.824C528.131 436.091 528.201 436.304 528.339 436.464C528.489 436.613 528.702 436.741 528.979 436.848C529.267 436.955 529.614 437.072 530.019 437.2C530.649 437.381 531.193 437.563 531.651 437.744C532.121 437.925 532.483 438.16 532.739 438.448C532.995 438.736 533.123 439.136 533.123 439.648C533.123 440.437 532.825 441.056 532.227 441.504C531.63 441.941 530.841 442.16 529.859 442.16Z" fill="white"/>
<circle cx="208" cy="590" r="54" fill="black"/>
<path d="M171.384 596H169.976V591.328C169.976 590.443 169.837 589.797 169.56 589.392C169.293 588.976 168.883 588.768 168.328 588.768C167.944 588.768 167.56 588.864 167.176 589.056C166.803 589.248 166.467 589.509 166.168 589.84C165.88 590.16 165.672 590.533 165.544 590.96V596H164.136V587.648H165.416V589.44C165.64 589.045 165.928 588.704 166.28 588.416C166.632 588.128 167.032 587.904 167.48 587.744C167.928 587.584 168.397 587.504 168.888 587.504C169.368 587.504 169.768 587.595 170.088 587.776C170.419 587.947 170.675 588.192 170.856 588.512C171.048 588.821 171.181 589.189 171.256 589.616C171.341 590.043 171.384 590.507 171.384 591.008V596ZM177.27 596.16C176.64 596.16 176.064 596.048 175.542 595.824C175.03 595.589 174.582 595.275 174.198 594.88C173.824 594.475 173.531 594.011 173.318 593.488C173.115 592.965 173.014 592.411 173.014 591.824C173.014 591.035 173.195 590.315 173.558 589.664C173.92 589.013 174.422 588.491 175.062 588.096C175.712 587.701 176.454 587.504 177.286 587.504C178.128 587.504 178.859 587.707 179.478 588.112C180.107 588.507 180.592 589.029 180.934 589.68C181.286 590.32 181.462 591.013 181.462 591.76C181.462 591.867 181.456 591.973 181.446 592.08C181.446 592.176 181.44 592.251 181.43 592.304H174.502C174.544 592.848 174.694 593.333 174.95 593.76C175.216 594.176 175.558 594.507 175.974 594.752C176.39 594.987 176.838 595.104 177.318 595.104C177.83 595.104 178.31 594.976 178.758 594.72C179.216 594.464 179.531 594.128 179.702 593.712L180.918 594.048C180.736 594.453 180.464 594.816 180.102 595.136C179.75 595.456 179.328 595.707 178.838 595.888C178.358 596.069 177.835 596.16 177.27 596.16ZM174.454 591.328H180.15C180.107 590.784 179.952 590.304 179.686 589.888C179.419 589.472 179.078 589.147 178.662 588.912C178.246 588.677 177.787 588.56 177.286 588.56C176.795 588.56 176.342 588.677 175.926 588.912C175.51 589.147 175.168 589.472 174.902 589.888C174.646 590.304 174.496 590.784 174.454 591.328ZM193.272 587.648H194.632L191.08 596H189.848L188.232 592.064L186.632 596H185.4L181.848 587.648H183.192L186.072 594.608L187.416 591.184L186.008 587.664H187.24L188.232 590.32L189.224 587.664H190.456L189.064 591.184L190.408 594.608L193.272 587.648ZM209.553 587.648H210.913L207.361 596H206.129L204.513 592.064L202.913 596H201.681L198.129 587.648H199.473L202.353 594.608L203.697 591.184L202.289 587.664H203.521L204.513 590.32L205.505 587.664H206.737L205.345 591.184L206.689 594.608L209.553 587.648ZM211.371 593.584C211.371 593.051 211.52 592.592 211.819 592.208C212.128 591.813 212.549 591.509 213.083 591.296C213.616 591.083 214.235 590.976 214.939 590.976C215.312 590.976 215.707 591.008 216.123 591.072C216.539 591.125 216.907 591.211 217.227 591.328V590.72C217.227 590.08 217.035 589.579 216.651 589.216C216.267 588.843 215.723 588.656 215.019 588.656C214.56 588.656 214.117 588.741 213.691 588.912C213.275 589.072 212.832 589.307 212.363 589.616L211.851 588.624C212.395 588.251 212.939 587.973 213.483 587.792C214.027 587.6 214.592 587.504 215.179 587.504C216.245 587.504 217.088 587.803 217.707 588.4C218.325 588.987 218.635 589.808 218.635 590.864V594.4C218.635 594.571 218.667 594.699 218.731 594.784C218.805 594.859 218.923 594.901 219.083 594.912V596C218.944 596.021 218.821 596.037 218.715 596.048C218.619 596.059 218.539 596.064 218.475 596.064C218.144 596.064 217.893 595.973 217.723 595.792C217.563 595.611 217.472 595.419 217.451 595.216L217.419 594.688C217.056 595.157 216.581 595.52 215.995 595.776C215.408 596.032 214.827 596.16 214.251 596.16C213.696 596.16 213.2 596.048 212.763 595.824C212.325 595.589 211.984 595.28 211.739 594.896C211.493 594.501 211.371 594.064 211.371 593.584ZM216.811 594.176C216.939 594.027 217.04 593.877 217.115 593.728C217.189 593.568 217.227 593.435 217.227 593.328V592.288C216.896 592.16 216.549 592.064 216.187 592C215.824 591.925 215.467 591.888 215.115 591.888C214.4 591.888 213.819 592.032 213.371 592.32C212.933 592.597 212.715 592.981 212.715 593.472C212.715 593.739 212.784 594 212.923 594.256C213.072 594.501 213.285 594.704 213.563 594.864C213.851 595.024 214.203 595.104 214.619 595.104C215.056 595.104 215.472 595.019 215.867 594.848C216.261 594.667 216.576 594.443 216.811 594.176ZM220.918 584.32H222.326V593.84C222.326 594.299 222.39 594.581 222.518 594.688C222.646 594.795 222.801 594.848 222.982 594.848C223.206 594.848 223.419 594.827 223.622 594.784C223.825 594.731 223.995 594.677 224.134 594.624L224.358 595.776C224.123 595.872 223.846 595.952 223.526 596.016C223.206 596.08 222.923 596.112 222.678 596.112C222.134 596.112 221.702 595.957 221.382 595.648C221.073 595.339 220.918 594.907 220.918 594.352V584.32ZM225.496 584.32H226.904V593.84C226.904 594.299 226.968 594.581 227.096 594.688C227.224 594.795 227.379 594.848 227.56 594.848C227.784 594.848 227.997 594.827 228.2 594.784C228.403 594.731 228.573 594.677 228.712 594.624L228.936 595.776C228.701 595.872 228.424 595.952 228.104 596.016C227.784 596.08 227.501 596.112 227.256 596.112C226.712 596.112 226.28 595.957 225.96 595.648C225.651 595.339 225.496 594.907 225.496 594.352V584.32ZM233.738 596.16C233.109 596.16 232.533 596.048 232.01 595.824C231.498 595.589 231.05 595.275 230.666 594.88C230.293 594.475 230 594.011 229.786 593.488C229.584 592.965 229.482 592.411 229.482 591.824C229.482 591.035 229.664 590.315 230.026 589.664C230.389 589.013 230.89 588.491 231.53 588.096C232.181 587.701 232.922 587.504 233.754 587.504C234.597 587.504 235.328 587.707 235.946 588.112C236.576 588.507 237.061 589.029 237.402 589.68C237.754 590.32 237.93 591.013 237.93 591.76C237.93 591.867 237.925 591.973 237.914 592.08C237.914 592.176 237.909 592.251 237.898 592.304H230.97C231.013 592.848 231.162 593.333 231.418 593.76C231.685 594.176 232.026 594.507 232.442 594.752C232.858 594.987 233.306 595.104 233.786 595.104C234.298 595.104 234.778 594.976 235.226 594.72C235.685 594.464 236 594.128 236.17 593.712L237.386 594.048C237.205 594.453 236.933 594.816 236.57 595.136C236.218 595.456 235.797 595.707 235.306 595.888C234.826 596.069 234.304 596.16 233.738 596.16ZM230.922 591.328H236.618C236.576 590.784 236.421 590.304 236.154 589.888C235.888 589.472 235.546 589.147 235.13 588.912C234.714 588.677 234.256 588.56 233.754 588.56C233.264 588.56 232.81 588.677 232.394 588.912C231.978 589.147 231.637 589.472 231.37 589.888C231.114 590.304 230.965 590.784 230.922 591.328ZM243.737 595.584C243.62 595.637 243.46 595.707 243.257 595.792C243.055 595.877 242.82 595.952 242.553 596.016C242.287 596.08 242.004 596.112 241.705 596.112C241.364 596.112 241.049 596.053 240.761 595.936C240.473 595.808 240.244 595.616 240.073 595.36C239.903 595.093 239.817 594.763 239.817 594.368V588.752H238.681V587.648H239.817V584.864H241.225V587.648H243.097V588.752H241.225V593.936C241.247 594.235 241.348 594.459 241.529 594.608C241.711 594.747 241.924 594.816 242.169 594.816C242.447 594.816 242.703 594.768 242.937 594.672C243.172 594.576 243.327 594.507 243.401 594.464L243.737 595.584ZM247.906 596.16C247.213 596.16 246.562 596.048 245.954 595.824C245.346 595.589 244.824 595.243 244.386 594.784L244.93 593.792C245.41 594.24 245.89 594.56 246.37 594.752C246.85 594.944 247.341 595.04 247.842 595.04C248.418 595.04 248.888 594.933 249.25 594.72C249.613 594.496 249.794 594.171 249.794 593.744C249.794 593.435 249.698 593.205 249.506 593.056C249.325 592.907 249.064 592.784 248.722 592.688C248.381 592.581 247.976 592.464 247.506 592.336C246.93 592.165 246.445 591.984 246.05 591.792C245.656 591.6 245.357 591.36 245.154 591.072C244.952 590.784 244.85 590.421 244.85 589.984C244.85 589.451 244.989 589.003 245.266 588.64C245.544 588.267 245.922 587.984 246.402 587.792C246.893 587.6 247.448 587.504 248.066 587.504C248.685 587.504 249.245 587.6 249.746 587.792C250.248 587.984 250.68 588.267 251.042 588.64L250.402 589.616C250.072 589.275 249.709 589.024 249.314 588.864C248.92 588.693 248.477 588.608 247.986 588.608C247.698 588.608 247.416 588.645 247.138 588.72C246.861 588.784 246.632 588.907 246.45 589.088C246.269 589.259 246.178 589.504 246.178 589.824C246.178 590.091 246.248 590.304 246.386 590.464C246.536 590.613 246.749 590.741 247.026 590.848C247.314 590.955 247.661 591.072 248.066 591.2C248.696 591.381 249.24 591.563 249.698 591.744C250.168 591.925 250.53 592.16 250.786 592.448C251.042 592.736 251.17 593.136 251.17 593.648C251.17 594.437 250.872 595.056 250.274 595.504C249.677 595.941 248.888 596.16 247.906 596.16Z" fill="white"/>
<ellipse cx="481.202" cy="67.5" rx="66.2019" ry="67.5" fill="black"/>
<path d="M433.832 73.16C433.203 73.16 432.627 73.048 432.104 72.824C431.592 72.5893 431.144 72.2693 430.76 71.864C430.387 71.4587 430.093 70.9947 429.88 70.472C429.677 69.9493 429.576 69.3947 429.576 68.808C429.576 68.0187 429.752 67.2987 430.104 66.648C430.456 65.9973 430.952 65.48 431.592 65.096C432.232 64.7013 432.973 64.504 433.816 64.504C434.637 64.504 435.352 64.6907 435.96 65.064C436.579 65.4267 437.037 65.9173 437.336 66.536L435.96 66.968C435.747 66.5733 435.448 66.2693 435.064 66.056C434.68 65.832 434.253 65.72 433.784 65.72C433.272 65.72 432.803 65.8533 432.376 66.12C431.96 66.3867 431.629 66.7547 431.384 67.224C431.139 67.6827 431.016 68.2107 431.016 68.808C431.016 69.3947 431.139 69.928 431.384 70.408C431.64 70.8773 431.976 71.2507 432.392 71.528C432.819 71.8053 433.288 71.944 433.8 71.944C434.131 71.944 434.445 71.8853 434.744 71.768C435.053 71.6507 435.32 71.496 435.544 71.304C435.779 71.1013 435.939 70.8827 436.024 70.648L437.4 71.064C437.229 71.4693 436.968 71.832 436.616 72.152C436.275 72.4613 435.864 72.7067 435.384 72.888C434.915 73.0693 434.397 73.16 433.832 73.16ZM443.411 65.88C442.707 65.8907 442.083 66.072 441.539 66.424C441.006 66.7653 440.627 67.24 440.403 67.848V73H438.995V64.648H440.307V66.584C440.595 66.008 440.974 65.544 441.443 65.192C441.923 64.8293 442.425 64.6267 442.947 64.584C443.054 64.584 443.145 64.584 443.219 64.584C443.294 64.584 443.358 64.5893 443.411 64.6V65.88ZM445.192 75.272C445.331 75.2827 445.469 75.2933 445.608 75.304C445.747 75.3253 445.853 75.336 445.928 75.336C446.099 75.336 446.248 75.2773 446.376 75.16C446.504 75.0427 446.643 74.8133 446.792 74.472C446.952 74.1413 447.155 73.6507 447.4 73L443.864 64.648H445.352L448.168 71.576L450.712 64.648H452.104L448.04 75.192C447.944 75.4373 447.8 75.6667 447.608 75.88C447.427 76.104 447.192 76.28 446.904 76.408C446.616 76.536 446.269 76.6 445.864 76.6C445.768 76.6 445.667 76.5947 445.56 76.584C445.464 76.5733 445.341 76.552 445.192 76.52V75.272ZM458.023 73.16C457.34 73.16 456.732 72.9893 456.199 72.648C455.665 72.3067 455.244 71.8747 454.935 71.352V76.408H453.527V64.648H454.775V66.216C455.105 65.704 455.537 65.2933 456.071 64.984C456.604 64.664 457.185 64.504 457.815 64.504C458.391 64.504 458.919 64.6213 459.399 64.856C459.879 65.0907 460.295 65.4107 460.647 65.816C460.999 66.2213 461.271 66.6853 461.463 67.208C461.665 67.72 461.767 68.2587 461.767 68.824C461.767 69.6133 461.607 70.3387 461.287 71C460.977 71.6613 460.54 72.1893 459.975 72.584C459.409 72.968 458.759 73.16 458.023 73.16ZM457.591 71.944C458.007 71.944 458.38 71.8587 458.711 71.688C459.052 71.5067 459.34 71.272 459.575 70.984C459.82 70.6853 460.007 70.3493 460.135 69.976C460.263 69.6027 460.327 69.2187 460.327 68.824C460.327 68.408 460.252 68.0133 460.103 67.64C459.964 67.2667 459.761 66.936 459.495 66.648C459.239 66.36 458.935 66.136 458.583 65.976C458.241 65.8053 457.868 65.72 457.463 65.72C457.207 65.72 456.94 65.768 456.663 65.864C456.396 65.96 456.14 66.0987 455.895 66.28C455.649 66.4507 455.441 66.648 455.271 66.872C455.1 67.096 454.988 67.336 454.935 67.592V69.976C455.095 70.3387 455.308 70.6693 455.575 70.968C455.841 71.2667 456.151 71.5067 456.503 71.688C456.855 71.8587 457.217 71.944 457.591 71.944ZM467.69 72.584C467.573 72.6373 467.413 72.7067 467.21 72.792C467.008 72.8773 466.773 72.952 466.506 73.016C466.24 73.08 465.957 73.112 465.658 73.112C465.317 73.112 465.002 73.0533 464.714 72.936C464.426 72.808 464.197 72.616 464.026 72.36C463.856 72.0933 463.77 71.7627 463.77 71.368V65.752H462.634V64.648H463.77V61.864H465.178V64.648H467.05V65.752H465.178V70.936C465.2 71.2347 465.301 71.4587 465.482 71.608C465.664 71.7467 465.877 71.816 466.122 71.816C466.4 71.816 466.656 71.768 466.89 71.672C467.125 71.576 467.28 71.5067 467.354 71.464L467.69 72.584ZM472.534 73.16C471.905 73.16 471.334 73.048 470.822 72.824C470.31 72.5893 469.867 72.2747 469.494 71.88C469.121 71.4747 468.833 71.0107 468.63 70.488C468.427 69.9653 468.326 69.416 468.326 68.84C468.326 68.2533 468.427 67.6987 468.63 67.176C468.833 66.6533 469.121 66.1947 469.494 65.8C469.867 65.3947 470.31 65.08 470.822 64.856C471.345 64.6213 471.915 64.504 472.534 64.504C473.163 64.504 473.734 64.6213 474.246 64.856C474.758 65.08 475.201 65.3947 475.574 65.8C475.958 66.1947 476.251 66.6533 476.454 67.176C476.657 67.6987 476.758 68.2533 476.758 68.84C476.758 69.416 476.657 69.9653 476.454 70.488C476.251 71.0107 475.963 71.4747 475.59 71.88C475.217 72.2747 474.769 72.5893 474.246 72.824C473.734 73.048 473.163 73.16 472.534 73.16ZM469.766 68.856C469.766 69.432 469.889 69.9547 470.134 70.424C470.39 70.8933 470.726 71.2667 471.142 71.544C471.558 71.8107 472.022 71.944 472.534 71.944C473.046 71.944 473.51 71.8053 473.926 71.528C474.353 71.2507 474.689 70.8773 474.934 70.408C475.19 69.928 475.318 69.4 475.318 68.824C475.318 68.248 475.19 67.7253 474.934 67.256C474.689 66.7867 474.353 66.4133 473.926 66.136C473.51 65.8587 473.046 65.72 472.534 65.72C472.022 65.72 471.558 65.864 471.142 66.152C470.726 66.4293 470.39 66.8027 470.134 67.272C469.889 67.7413 469.766 68.2693 469.766 68.856ZM481.328 73.16C480.635 73.16 479.984 73.048 479.376 72.824C478.768 72.5893 478.245 72.2427 477.808 71.784L478.352 70.792C478.832 71.24 479.312 71.56 479.792 71.752C480.272 71.944 480.763 72.04 481.264 72.04C481.84 72.04 482.309 71.9333 482.672 71.72C483.035 71.496 483.216 71.1707 483.216 70.744C483.216 70.4347 483.12 70.2053 482.928 70.056C482.747 69.9067 482.485 69.784 482.144 69.688C481.803 69.5813 481.397 69.464 480.928 69.336C480.352 69.1653 479.867 68.984 479.472 68.792C479.077 68.6 478.779 68.36 478.576 68.072C478.373 67.784 478.272 67.4213 478.272 66.984C478.272 66.4507 478.411 66.0027 478.688 65.64C478.965 65.2667 479.344 64.984 479.824 64.792C480.315 64.6 480.869 64.504 481.488 64.504C482.107 64.504 482.667 64.6 483.168 64.792C483.669 64.984 484.101 65.2667 484.464 65.64L483.824 66.616C483.493 66.2747 483.131 66.024 482.736 65.864C482.341 65.6933 481.899 65.608 481.408 65.608C481.12 65.608 480.837 65.6453 480.56 65.72C480.283 65.784 480.053 65.9067 479.872 66.088C479.691 66.2587 479.6 66.504 479.6 66.824C479.6 67.0907 479.669 67.304 479.808 67.464C479.957 67.6133 480.171 67.7413 480.448 67.848C480.736 67.9547 481.083 68.072 481.488 68.2C482.117 68.3813 482.661 68.5627 483.12 68.744C483.589 68.9253 483.952 69.16 484.208 69.448C484.464 69.736 484.592 70.136 484.592 70.648C484.592 71.4373 484.293 72.056 483.696 72.504C483.099 72.9413 482.309 73.16 481.328 73.16ZM486.489 75.272C486.627 75.2827 486.766 75.2933 486.905 75.304C487.043 75.3253 487.15 75.336 487.225 75.336C487.395 75.336 487.545 75.2773 487.673 75.16C487.801 75.0427 487.939 74.8133 488.089 74.472C488.249 74.1413 488.451 73.6507 488.697 73L485.161 64.648H486.649L489.465 71.576L492.009 64.648H493.401L489.337 75.192C489.241 75.4373 489.097 75.6667 488.905 75.88C488.723 76.104 488.489 76.28 488.201 76.408C487.913 76.536 487.566 76.6 487.161 76.6C487.065 76.6 486.963 76.5947 486.857 76.584C486.761 76.5733 486.638 76.552 486.489 76.52V75.272ZM497.469 73.16C496.775 73.16 496.125 73.048 495.517 72.824C494.909 72.5893 494.386 72.2427 493.949 71.784L494.493 70.792C494.973 71.24 495.453 71.56 495.933 71.752C496.413 71.944 496.903 72.04 497.405 72.04C497.981 72.04 498.45 71.9333 498.813 71.72C499.175 71.496 499.357 71.1707 499.357 70.744C499.357 70.4347 499.261 70.2053 499.069 70.056C498.887 69.9067 498.626 69.784 498.285 69.688C497.943 69.5813 497.538 69.464 497.069 69.336C496.493 69.1653 496.007 68.984 495.613 68.792C495.218 68.6 494.919 68.36 494.717 68.072C494.514 67.784 494.413 67.4213 494.413 66.984C494.413 66.4507 494.551 66.0027 494.829 65.64C495.106 65.2667 495.485 64.984 495.965 64.792C496.455 64.6 497.01 64.504 497.629 64.504C498.247 64.504 498.807 64.6 499.309 64.792C499.81 64.984 500.242 65.2667 500.605 65.64L499.965 66.616C499.634 66.2747 499.271 66.024 498.877 65.864C498.482 65.6933 498.039 65.608 497.549 65.608C497.261 65.608 496.978 65.6453 496.701 65.72C496.423 65.784 496.194 65.9067 496.013 66.088C495.831 66.2587 495.741 66.504 495.741 66.824C495.741 67.0907 495.81 67.304 495.949 67.464C496.098 67.6133 496.311 67.7413 496.589 67.848C496.877 67.9547 497.223 68.072 497.629 68.2C498.258 68.3813 498.802 68.5627 499.261 68.744C499.73 68.9253 500.093 69.16 500.349 69.448C500.605 69.736 500.733 70.136 500.733 70.648C500.733 71.4373 500.434 72.056 499.837 72.504C499.239 72.9413 498.45 73.16 497.469 73.16ZM506.737 72.584C506.62 72.6373 506.46 72.7067 506.257 72.792C506.055 72.8773 505.82 72.952 505.553 73.016C505.287 73.08 505.004 73.112 504.705 73.112C504.364 73.112 504.049 73.0533 503.761 72.936C503.473 72.808 503.244 72.616 503.073 72.36C502.903 72.0933 502.817 71.7627 502.817 71.368V65.752H501.681V64.648H502.817V61.864H504.225V64.648H506.097V65.752H504.225V70.936C504.247 71.2347 504.348 71.4587 504.529 71.608C504.711 71.7467 504.924 71.816 505.169 71.816C505.447 71.816 505.703 71.768 505.937 71.672C506.172 71.576 506.327 71.5067 506.401 71.464L506.737 72.584ZM511.629 73.16C511 73.16 510.424 73.048 509.901 72.824C509.389 72.5893 508.941 72.2747 508.557 71.88C508.184 71.4747 507.89 71.0107 507.677 70.488C507.474 69.9653 507.373 69.4107 507.373 68.824C507.373 68.0347 507.554 67.3147 507.917 66.664C508.28 66.0133 508.781 65.4907 509.421 65.096C510.072 64.7013 510.813 64.504 511.645 64.504C512.488 64.504 513.218 64.7067 513.837 65.112C514.466 65.5067 514.952 66.0293 515.293 66.68C515.645 67.32 515.821 68.0133 515.821 68.76C515.821 68.8667 515.816 68.9733 515.805 69.08C515.805 69.176 515.8 69.2507 515.789 69.304H508.861C508.904 69.848 509.053 70.3333 509.309 70.76C509.576 71.176 509.917 71.5067 510.333 71.752C510.749 71.9867 511.197 72.104 511.677 72.104C512.189 72.104 512.669 71.976 513.117 71.72C513.576 71.464 513.89 71.128 514.061 70.712L515.277 71.048C515.096 71.4533 514.824 71.816 514.461 72.136C514.109 72.456 513.688 72.7067 513.197 72.888C512.717 73.0693 512.194 73.16 511.629 73.16ZM508.813 68.328H514.509C514.466 67.784 514.312 67.304 514.045 66.888C513.778 66.472 513.437 66.1467 513.021 65.912C512.605 65.6773 512.146 65.56 511.645 65.56C511.154 65.56 510.701 65.6773 510.285 65.912C509.869 66.1467 509.528 66.472 509.261 66.888C509.005 67.304 508.856 67.784 508.813 68.328ZM529.978 73H528.57V68.328C528.57 67.4533 528.426 66.808 528.138 66.392C527.861 65.976 527.445 65.768 526.89 65.768C526.325 65.768 525.813 65.976 525.354 66.392C524.895 66.7973 524.57 67.3253 524.378 67.976V73H522.97V68.328C522.97 67.4427 522.831 66.7973 522.554 66.392C522.277 65.976 521.861 65.768 521.306 65.768C520.751 65.768 520.239 65.9707 519.77 66.376C519.311 66.7707 518.986 67.2987 518.794 67.96V73H517.386V64.648H518.666V66.44C519.007 65.8213 519.45 65.3467 519.994 65.016C520.538 64.6747 521.151 64.504 521.834 64.504C522.527 64.504 523.082 64.696 523.498 65.08C523.914 65.4533 524.17 65.9387 524.266 66.536C524.639 65.8747 525.093 65.3733 525.626 65.032C526.159 64.68 526.767 64.504 527.45 64.504C527.93 64.504 528.33 64.5947 528.65 64.776C528.981 64.9467 529.242 65.192 529.434 65.512C529.626 65.8213 529.765 66.1893 529.85 66.616C529.935 67.0427 529.978 67.5067 529.978 68.008V73Z" fill="white"/>
<circle cx="255" cy="379" r="5" fill="#4B4B4B"/>
<circle cx="525" cy="263" r="10" fill="#252525"/>
<circle cx="360" cy="525" r="8" fill="#090809"/>
<path d="M262.7 320.8C262.7 319.933 262.853 319.087 263.16 318.26C263.467 317.42 263.913 316.66 264.5 315.98C265.1 315.287 265.827 314.74 266.68 314.34C267.533 313.927 268.5 313.72 269.58 313.72C270.86 313.72 271.967 314.013 272.9 314.6C273.833 315.173 274.527 315.913 274.98 316.82L273.22 318C272.953 317.427 272.613 316.973 272.2 316.64C271.8 316.307 271.36 316.073 270.88 315.94C270.413 315.807 269.953 315.74 269.5 315.74C268.753 315.74 268.1 315.893 267.54 316.2C266.98 316.493 266.507 316.887 266.12 317.38C265.747 317.873 265.46 318.427 265.26 319.04C265.073 319.653 264.98 320.267 264.98 320.88C264.98 321.56 265.093 322.22 265.32 322.86C265.547 323.487 265.86 324.047 266.26 324.54C266.673 325.02 267.16 325.4 267.72 325.68C268.28 325.96 268.893 326.1 269.56 326.1C270.013 326.1 270.487 326.02 270.98 325.86C271.473 325.7 271.927 325.453 272.34 325.12C272.767 324.773 273.1 324.32 273.34 323.76L275.2 324.82C274.907 325.527 274.447 326.127 273.82 326.62C273.207 327.113 272.513 327.487 271.74 327.74C270.98 327.993 270.227 328.12 269.48 328.12C268.48 328.12 267.567 327.913 266.74 327.5C265.913 327.073 265.2 326.513 264.6 325.82C264 325.113 263.533 324.327 263.2 323.46C262.867 322.58 262.7 321.693 262.7 320.8ZM286.372 328H284.172V322.14C284.172 321.193 283.999 320.487 283.652 320.02C283.305 319.553 282.819 319.32 282.192 319.32C281.805 319.32 281.405 319.427 280.992 319.64C280.579 319.853 280.212 320.147 279.892 320.52C279.572 320.88 279.339 321.3 279.192 321.78V328H276.992V313.4H279.192V319.64C279.592 318.933 280.139 318.38 280.832 317.98C281.525 317.567 282.272 317.36 283.072 317.36C283.725 317.36 284.265 317.473 284.692 317.7C285.119 317.927 285.452 318.24 285.692 318.64C285.945 319.027 286.119 319.48 286.212 320C286.319 320.507 286.372 321.047 286.372 321.62V328ZM288.165 324.94C288.165 324.273 288.352 323.693 288.725 323.2C289.112 322.693 289.639 322.307 290.305 322.04C290.972 321.76 291.745 321.62 292.625 321.62C293.092 321.62 293.565 321.653 294.045 321.72C294.539 321.787 294.972 321.893 295.345 322.04V321.38C295.345 320.647 295.125 320.073 294.685 319.66C294.245 319.247 293.612 319.04 292.785 319.04C292.199 319.04 291.645 319.147 291.125 319.36C290.605 319.56 290.052 319.847 289.465 320.22L288.725 318.74C289.419 318.273 290.112 317.927 290.805 317.7C291.512 317.473 292.252 317.36 293.025 317.36C294.425 317.36 295.525 317.733 296.325 318.48C297.139 319.213 297.545 320.26 297.545 321.62V325.52C297.545 325.773 297.585 325.953 297.665 326.06C297.759 326.167 297.912 326.227 298.125 326.24V328C297.925 328.04 297.745 328.067 297.585 328.08C297.425 328.093 297.292 328.1 297.185 328.1C296.719 328.1 296.365 327.987 296.125 327.76C295.885 327.533 295.745 327.267 295.705 326.96L295.645 326.36C295.192 326.947 294.612 327.4 293.905 327.72C293.199 328.04 292.485 328.2 291.765 328.2C291.072 328.2 290.452 328.06 289.905 327.78C289.359 327.487 288.932 327.093 288.625 326.6C288.319 326.107 288.165 325.553 288.165 324.94ZM294.825 325.58C294.985 325.407 295.112 325.233 295.205 325.06C295.299 324.887 295.345 324.733 295.345 324.6V323.4C294.972 323.253 294.579 323.147 294.165 323.08C293.752 323 293.345 322.96 292.945 322.96C292.145 322.96 291.492 323.12 290.985 323.44C290.492 323.76 290.245 324.2 290.245 324.76C290.245 325.067 290.325 325.36 290.485 325.64C290.659 325.92 290.899 326.147 291.205 326.32C291.525 326.493 291.919 326.58 292.385 326.58C292.865 326.58 293.325 326.487 293.765 326.3C294.205 326.113 294.559 325.873 294.825 325.58ZM309.595 328H307.395V322.14C307.395 321.167 307.235 320.453 306.915 320C306.608 319.547 306.148 319.32 305.535 319.32C305.108 319.32 304.681 319.427 304.255 319.64C303.841 319.853 303.468 320.147 303.135 320.52C302.801 320.88 302.561 321.3 302.415 321.78V328H300.215V317.54H302.215V319.64C302.481 319.173 302.828 318.773 303.255 318.44C303.695 318.093 304.188 317.827 304.735 317.64C305.281 317.453 305.861 317.36 306.475 317.36C307.101 317.36 307.615 317.473 308.015 317.7C308.428 317.927 308.748 318.24 308.975 318.64C309.215 319.027 309.375 319.48 309.455 320C309.548 320.507 309.595 321.047 309.595 321.62V328ZM317.89 327.46C317.703 327.553 317.47 327.653 317.19 327.76C316.91 327.867 316.59 327.96 316.23 328.04C315.883 328.12 315.523 328.16 315.15 328.16C314.697 328.16 314.277 328.08 313.89 327.92C313.503 327.76 313.19 327.507 312.95 327.16C312.723 326.8 312.61 326.34 312.61 325.78V319.24H311.23V317.54H312.61V314.1H314.81V317.54H317.09V319.24H314.81V325.08C314.837 325.44 314.95 325.707 315.15 325.88C315.363 326.053 315.623 326.14 315.93 326.14C316.237 326.14 316.53 326.087 316.81 325.98C317.09 325.873 317.297 325.787 317.43 325.72L317.89 327.46ZM324.017 328.2C323.204 328.2 322.464 328.06 321.797 327.78C321.144 327.487 320.577 327.093 320.097 326.6C319.617 326.093 319.244 325.52 318.977 324.88C318.724 324.227 318.597 323.533 318.597 322.8C318.597 321.813 318.824 320.913 319.277 320.1C319.73 319.273 320.364 318.613 321.177 318.12C321.99 317.613 322.944 317.36 324.037 317.36C325.13 317.36 326.07 317.613 326.857 318.12C327.657 318.613 328.277 319.267 328.717 320.08C329.157 320.893 329.377 321.767 329.377 322.7C329.377 322.86 329.37 323.013 329.357 323.16C329.344 323.293 329.33 323.407 329.317 323.5H320.937C320.977 324.113 321.144 324.653 321.437 325.12C321.744 325.573 322.13 325.933 322.597 326.2C323.064 326.453 323.564 326.58 324.097 326.58C324.684 326.58 325.237 326.433 325.757 326.14C326.29 325.847 326.65 325.46 326.837 324.98L328.717 325.52C328.49 326.027 328.144 326.487 327.677 326.9C327.224 327.3 326.684 327.62 326.057 327.86C325.43 328.087 324.75 328.2 324.017 328.2ZM320.877 322.04H327.197C327.157 321.44 326.984 320.913 326.677 320.46C326.384 319.993 326.004 319.633 325.537 319.38C325.084 319.113 324.577 318.98 324.017 318.98C323.47 318.98 322.964 319.113 322.497 319.38C322.044 319.633 321.67 319.993 321.377 320.46C321.084 320.913 320.917 321.44 320.877 322.04ZM337.052 319.44C336.198 319.453 335.438 319.647 334.772 320.02C334.118 320.393 333.652 320.92 333.372 321.6V328H331.172V317.54H333.212V319.88C333.572 319.16 334.045 318.587 334.632 318.16C335.218 317.72 335.838 317.48 336.492 317.44C336.625 317.44 336.732 317.44 336.812 317.44C336.905 317.44 336.985 317.447 337.052 317.46V319.44ZM353.164 326.02V328H343.424V313.8H352.984V315.78H345.664V319.82H352.004V321.68H345.664V326.02H353.164ZM364.497 328H362.297V322.14C362.297 321.167 362.137 320.453 361.817 320C361.51 319.547 361.05 319.32 360.437 319.32C360.01 319.32 359.584 319.427 359.157 319.64C358.744 319.853 358.37 320.147 358.037 320.52C357.704 320.88 357.464 321.3 357.317 321.78V328H355.117V317.54H357.117V319.64C357.384 319.173 357.73 318.773 358.157 318.44C358.597 318.093 359.09 317.827 359.637 317.64C360.184 317.453 360.764 317.36 361.377 317.36C362.004 317.36 362.517 317.473 362.917 317.7C363.33 317.927 363.65 318.24 363.877 318.64C364.117 319.027 364.277 319.48 364.357 320C364.45 320.507 364.497 321.047 364.497 321.62V328ZM371.79 328.2C370.977 328.2 370.237 328.06 369.57 327.78C368.917 327.487 368.35 327.093 367.87 326.6C367.39 326.093 367.017 325.52 366.75 324.88C366.497 324.227 366.37 323.533 366.37 322.8C366.37 321.813 366.597 320.913 367.05 320.1C367.504 319.273 368.137 318.613 368.95 318.12C369.764 317.613 370.717 317.36 371.81 317.36C372.904 317.36 373.844 317.613 374.63 318.12C375.43 318.613 376.05 319.267 376.49 320.08C376.93 320.893 377.15 321.767 377.15 322.7C377.15 322.86 377.144 323.013 377.13 323.16C377.117 323.293 377.104 323.407 377.09 323.5H368.71C368.75 324.113 368.917 324.653 369.21 325.12C369.517 325.573 369.904 325.933 370.37 326.2C370.837 326.453 371.337 326.58 371.87 326.58C372.457 326.58 373.01 326.433 373.53 326.14C374.064 325.847 374.424 325.46 374.61 324.98L376.49 325.52C376.264 326.027 375.917 326.487 375.45 326.9C374.997 327.3 374.457 327.62 373.83 327.86C373.204 328.087 372.524 328.2 371.79 328.2ZM368.65 322.04H374.97C374.93 321.44 374.757 320.913 374.45 320.46C374.157 319.993 373.777 319.633 373.31 319.38C372.857 319.113 372.35 318.98 371.79 318.98C371.244 318.98 370.737 319.113 370.27 319.38C369.817 319.633 369.444 319.993 369.15 320.46C368.857 320.913 368.69 321.44 368.65 322.04ZM384.825 319.44C383.972 319.453 383.212 319.647 382.545 320.02C381.892 320.393 381.425 320.92 381.145 321.6V328H378.945V317.54H380.985V319.88C381.345 319.16 381.818 318.587 382.405 318.16C382.992 317.72 383.612 317.48 384.265 317.44C384.398 317.44 384.505 317.44 384.585 317.44C384.678 317.44 384.758 317.447 384.825 317.46V319.44ZM390.409 328.1C389.703 328.1 389.056 327.96 388.469 327.68C387.883 327.387 387.376 326.993 386.949 326.5C386.536 326.007 386.209 325.44 385.969 324.8C385.743 324.16 385.629 323.487 385.629 322.78C385.629 322.033 385.749 321.333 385.989 320.68C386.229 320.027 386.563 319.453 386.989 318.96C387.429 318.453 387.943 318.06 388.529 317.78C389.116 317.5 389.769 317.36 390.489 317.36C391.329 317.36 392.063 317.56 392.689 317.96C393.329 318.36 393.856 318.88 394.269 319.52V317.54H396.209V327.7C396.209 328.713 395.963 329.573 395.469 330.28C394.989 330.987 394.329 331.527 393.489 331.9C392.649 332.273 391.703 332.46 390.649 332.46C389.489 332.46 388.529 332.26 387.769 331.86C387.009 331.46 386.363 330.913 385.829 330.22L387.069 329.06C387.469 329.62 387.983 330.047 388.609 330.34C389.249 330.633 389.929 330.78 390.649 330.78C391.249 330.78 391.803 330.667 392.309 330.44C392.829 330.227 393.243 329.887 393.549 329.42C393.856 328.967 394.009 328.393 394.009 327.7V326.1C393.636 326.727 393.123 327.22 392.469 327.58C391.816 327.927 391.129 328.1 390.409 328.1ZM391.129 326.32C391.463 326.32 391.783 326.267 392.089 326.16C392.396 326.04 392.676 325.887 392.929 325.7C393.196 325.5 393.423 325.28 393.609 325.04C393.796 324.787 393.929 324.52 394.009 324.24V321.5C393.836 321.047 393.589 320.653 393.269 320.32C392.949 319.973 392.589 319.707 392.189 319.52C391.789 319.333 391.383 319.24 390.969 319.24C390.489 319.24 390.056 319.347 389.669 319.56C389.296 319.76 388.976 320.033 388.709 320.38C388.443 320.713 388.236 321.093 388.089 321.52C387.943 321.947 387.869 322.387 387.869 322.84C387.869 323.32 387.949 323.767 388.109 324.18C388.283 324.593 388.516 324.967 388.809 325.3C389.103 325.62 389.449 325.873 389.849 326.06C390.249 326.233 390.676 326.32 391.129 326.32ZM399.207 330.46C399.407 330.487 399.601 330.513 399.787 330.54C399.987 330.58 400.147 330.6 400.267 330.6C400.494 330.6 400.687 330.527 400.847 330.38C401.021 330.247 401.194 329.993 401.367 329.62C401.541 329.247 401.754 328.707 402.007 328L397.707 317.54H400.007L403.207 325.76L406.047 317.54H408.167L403.427 330.42C403.281 330.807 403.067 331.16 402.787 331.48C402.507 331.813 402.161 332.073 401.747 332.26C401.334 332.447 400.847 332.54 400.287 332.54C400.127 332.54 399.961 332.527 399.787 332.5C399.614 332.473 399.421 332.433 399.207 332.38V330.46Z" fill="black"/>
</svg>
